<svg xmlns="http://www.w3.org/2000/svg" viewBox="0 0 477 475"><path d="M214.5 6.097C145.369 12.412 78.566 54.295 40.797 115-1.845 183.538-5.722 269.887 30.59 342.304c62.88 125.402 222.813 166.901 338.786 87.908 53.926-36.73 87.035-89.271 99.382-157.712 2.063-11.433 2.366-53.768.476-66.587C450.807 80.877 340.768-5.438 214.5 6.097m5.5 12.518c-50.932 6.329-89.712 22.716-124.5 52.607-10.09 8.67-13.253 11.806-23.527 23.324-22.419 25.135-41.392 63.887-48.524 99.112-29.653 146.448 91.431 278.584 240.34 262.279C353.311 446.135 429.27 379.42 451.581 291c9.102-36.075 8.317-77.892-2.141-114C425.725 95.122 358.935 35.881 273.5 20.947c-11.612-2.03-44.421-3.46-53.5-2.332m84.069 133.411c-30.251 6.361-53.719 27.111-63.274 55.944-3.928 11.852-4.643 33.378-1.497 45.03 11.647 43.129 54.072 68.917 97.702 59.388 40.365-8.816 67.164-46.721 62.884-88.944-3.237-31.941-27.336-60.355-58.923-69.474-8.438-2.436-29.321-3.537-36.892-1.944M156.14 157c-1.165 2.475-5.258 11.632-9.096 20.349l-6.978 15.85 12.37 26.15a51494.605 51494.605 0 0 0 27.068 57.151c1.826 3.85 6.696 14.076 10.823 22.725l7.502 15.725 20.085-.075c11.047-.041 20.086-.284 20.086-.541 0-1.115-17.741-37.388-47.607-97.334l-32.134-64.5-2.119 4.5m146.187 28.398c-13.379 4.972-22.637 13.38-29.073 26.404-7.062 14.287-5.699 34.205 3.275 47.879 24.224 36.911 80.12 27.607 90.96-15.141 6.295-24.825-8.402-51.137-33.207-59.455-8.912-2.988-23.455-2.846-31.955.313m-207.61 88.323c-10.88 21.878-19.768 40.049-19.75 40.379.05.903 51.352 1.053 52.708.154.647-.429 3.514-7.221 6.372-15.094l5.196-14.315-3.812-8.172c-2.097-4.495-7.664-15.949-12.372-25.452l-8.559-17.279-19.783 39.779" fill-rule="evenodd"/></svg>